<svg width="276" height="120" viewBox="0 0 276 120" fill="none" xmlns="http://www.w3.org/2000/svg">
<path d="M8.83626 106.87C10.6843 106.87 12.0563 105.908 12.0563 104.188C12.0563 101.994 9.71826 101.493 8.31826 100.653C7.71626 100.301 7.29626 99.8943 7.29626 99.2577C7.29626 98.4856 7.92626 97.9709 8.83626 97.9709C9.81626 97.9709 10.3763 98.5398 10.8243 99.2171L11.8323 98.4856C11.2303 97.4562 10.2363 96.8467 8.82226 96.8467C7.14226 96.8467 5.88226 97.7948 5.88226 99.4067C5.88226 101.533 8.09426 102.048 9.46626 102.874C10.0963 103.24 10.5583 103.673 10.5583 104.364C10.5583 105.177 9.90026 105.746 8.86426 105.746C7.68826 105.746 6.93226 105.041 6.33026 104.12L5.36426 104.838C6.05026 106.139 7.14226 106.87 8.83626 106.87Z" fill="white"/>
<path d="M22.2137 97.0499H15.5497V98.2012H18.1817V106.667H19.5817V98.2012H22.2137V97.0499Z" fill="white"/>
<path d="M32.185 106.667H33.697L30.183 97.0499H28.657L25.129 106.667H26.543L27.509 103.931H31.233L32.185 106.667ZM27.887 102.888L29.385 98.6617L30.869 102.888H27.887Z" fill="white"/>
<path d="M43.4965 106.667H45.1765L42.4885 102.806C43.9585 102.495 44.9385 101.506 44.9385 99.8672C44.9385 97.8355 43.4125 97.0499 41.3265 97.0499H38.1905V106.667H39.5905V102.928H40.9625L43.4965 106.667ZM39.5905 98.2012H41.2425C42.5445 98.2012 43.3845 98.743 43.3845 100.016C43.3845 101.276 42.5725 101.845 41.2425 101.845H39.5905V98.2012Z" fill="white"/>
<path d="M54.5106 101.723C55.4486 101.398 56.0926 100.707 56.0926 99.5421C56.0926 97.7677 54.6506 97.0499 52.8726 97.0499H49.9046V106.667H53.2926C55.2106 106.667 56.5826 105.773 56.5826 103.971C56.5826 102.59 55.7006 101.953 54.5106 101.723ZM52.6626 98.1741C53.7826 98.1741 54.5806 98.5804 54.5806 99.7318C54.5806 100.87 53.7826 101.249 52.6626 101.249H51.3046V98.1741H52.6626ZM53.1246 105.543H51.3046V102.319H53.1246C54.1886 102.319 55.0426 102.82 55.0426 103.944C55.0426 105.068 54.2306 105.543 53.1246 105.543Z" fill="white"/>
<path d="M64.9569 106.87C67.3509 106.87 68.7649 105.529 68.7649 103.023V97.0499H67.3369V102.942C67.3369 104.703 66.3709 105.61 64.9569 105.61C63.5989 105.61 62.5909 104.703 62.6049 102.942L62.6329 97.0499H61.2189V103.023C61.2189 105.529 62.6329 106.87 64.9569 106.87Z" fill="white"/>
<path d="M78.076 106.87C79.812 106.87 80.918 106.315 81.688 105.488L81.114 104.364C80.456 105.068 79.588 105.597 78.23 105.597C76.536 105.597 74.842 104.351 74.842 101.858C74.842 99.366 76.522 98.1199 78.202 98.1199C79.364 98.1199 80.218 98.5669 80.792 99.1493L81.366 97.9438C80.582 97.2937 79.588 96.8467 78.006 96.8467C75.472 96.8467 73.386 98.743 73.386 101.858C73.386 104.974 75.528 106.87 78.076 106.87Z" fill="white"/>
<path d="M91.7116 106.667H93.4336L89.6256 101.357L93.1816 97.0499H91.5016L87.5816 101.885V97.0499H86.1816V106.667H87.5816V103.795L88.6736 102.468L91.7116 106.667Z" fill="white"/>
<path d="M100.252 106.87C102.1 106.87 103.472 105.908 103.472 104.188C103.472 101.994 101.134 101.493 99.7339 100.653C99.1319 100.301 98.7119 99.8943 98.7119 99.2577C98.7119 98.4856 99.3419 97.9709 100.252 97.9709C101.232 97.9709 101.792 98.5398 102.24 99.2171L103.248 98.4856C102.646 97.4562 101.652 96.8467 100.238 96.8467C98.5579 96.8467 97.2979 97.7948 97.2979 99.4067C97.2979 101.533 99.5099 102.048 100.882 102.874C101.512 103.24 101.974 103.673 101.974 104.364C101.974 105.177 101.316 105.746 100.28 105.746C99.1039 105.746 98.3479 105.041 97.7459 104.12L96.7799 104.838C97.4659 106.139 98.5579 106.87 100.252 106.87Z" fill="white"/>
<path d="M124.342 106.87C126.078 106.87 127.184 106.315 127.954 105.488L127.38 104.364C126.722 105.068 125.854 105.597 124.496 105.597C122.802 105.597 121.108 104.351 121.108 101.858C121.108 99.366 122.788 98.1199 124.468 98.1199C125.63 98.1199 126.484 98.5669 127.058 99.1493L127.632 97.9438C126.848 97.2937 125.854 96.8467 124.272 96.8467C121.738 96.8467 119.652 98.743 119.652 101.858C119.652 104.974 121.794 106.87 124.342 106.87Z" fill="white"/>
<path d="M136.622 106.87C139.24 106.87 141.592 104.865 141.592 101.858C141.592 98.8513 139.24 96.8467 136.622 96.8467C134.018 96.8467 131.666 98.8513 131.666 101.858C131.666 104.865 134.018 106.87 136.622 106.87ZM136.622 105.624C134.914 105.624 133.15 104.378 133.15 101.858C133.15 99.339 134.914 98.0928 136.622 98.0928C138.33 98.0928 140.108 99.339 140.108 101.858C140.108 104.378 138.33 105.624 136.622 105.624Z" fill="white"/>
<path d="M151.529 98.2012V97.0499H146.349V106.667H147.749V102.387H150.927V101.262H147.749V98.2012H151.529Z" fill="white"/>
<path d="M161.192 98.2012V97.0499H156.012V106.667H157.412V102.387H160.59V101.262H157.412V98.2012H161.192Z" fill="white"/>
<path d="M170.967 98.2012V97.0499H165.675V106.667H170.967V105.515H167.075V102.251H170.407V101.127H167.075V98.2012H170.967Z" fill="white"/>
<path d="M181.068 98.2012V97.0499H175.776V106.667H181.068V105.515H177.176V102.251H180.508V101.127H177.176V98.2012H181.068Z" fill="white"/>
<path d="M198.09 106.667H199.602L196.088 97.0499H194.562L191.034 106.667H192.448L193.414 103.931H197.138L198.09 106.667ZM193.792 102.888L195.29 98.6617L196.774 102.888H193.792Z" fill="white"/>
<path d="M209.182 97.0499H202.518V98.2012H205.15V106.667H206.55V98.2012H209.182V97.0499Z" fill="white"/>
<path d="M226.197 97.0499V101.14H221.227V97.0499H219.827V106.667H221.227V102.292H226.197V106.667H227.597V97.0499H226.197Z" fill="white"/>
<path d="M237.316 106.87C239.934 106.87 242.286 104.865 242.286 101.858C242.286 98.8513 239.934 96.8467 237.316 96.8467C234.712 96.8467 232.36 98.8513 232.36 101.858C232.36 104.865 234.712 106.87 237.316 106.87ZM237.316 105.624C235.608 105.624 233.844 104.378 233.844 101.858C233.844 99.339 235.608 98.0928 237.316 98.0928C239.024 98.0928 240.802 99.339 240.802 101.858C240.802 104.378 239.024 105.624 237.316 105.624Z" fill="white"/>
<path d="M257.953 106.667L256.721 97.0499H255.335L252.255 104.486L249.147 97.0499H247.775L246.543 106.667H247.887L248.783 99.4202L251.765 106.667H252.689L255.587 99.4609L256.539 106.667H257.953Z" fill="white"/>
<path d="M268.368 98.2012V97.0499H263.076V106.667H268.368V105.515H264.476V102.251H267.808V101.127H264.476V98.2012H268.368Z" fill="white"/>
<path d="M110.16 105.4C112.02 105.4 113.85 104.04 113.85 101.7C113.85 99.36 112.02 98 110.16 98C108.31 98 106.48 99.36 106.48 101.7C106.48 104.04 108.31 105.4 110.16 105.4ZM110.16 104.87C108.65 104.87 107.07 103.82 107.07 101.7C107.07 99.58 108.65 98.53 110.16 98.53C111.67 98.53 113.26 99.58 113.26 101.7C113.26 103.82 111.67 104.87 110.16 104.87ZM108.93 103.79H109.45V102.13H110.06L111.16 103.79H111.79L110.65 102.09C111.28 101.96 111.7 101.55 111.7 100.82C111.7 99.93 111.05 99.6 110.19 99.6H108.93V103.79ZM110.18 101.7H109.45V100.04H110.18C110.74 100.04 111.12 100.29 111.12 100.86C111.12 101.44 110.75 101.71 110.18 101.7Z" fill="white"/>
<path d="M167.328 80.5762H166.43V75.2183H164.455V74.5156H169.303V75.2183H167.328V80.5762Z" fill="white"/>
<path d="M173.344 79.1709L175.229 74.5156H176.576V80.5762H175.678V75.4818L173.613 80.5762H173.074L171.009 75.4818V80.5762H170.111V74.5156H171.458L173.344 79.1709Z" fill="white"/>
<path d="M175.364 43.0004C175.364 63.0642 159.091 79.364 138.983 79.364C118.909 79.3295 102.636 63.0642 102.636 43.0004C102.636 22.9365 118.909 6.63672 139.017 6.63672C159.091 6.63672 175.364 22.9019 175.364 43.0004Z" fill="white"/>
<path d="M142.623 22.3494C142.312 22.2803 140.76 22.0386 138.966 22.0386C137.172 22.0386 135.619 22.2803 135.309 22.3494C135.136 22.3839 135.067 22.2113 135.205 22.1077C135.343 22.0041 138.966 19.2414 138.966 19.2414C138.966 19.2414 142.588 22.0041 142.726 22.1077C142.864 22.2113 142.795 22.3839 142.623 22.3494ZM136.309 40.3413C136.309 40.3413 136.102 40.4104 136.068 40.583C136.827 41.1701 137.344 42.5169 138.931 42.5169C140.518 42.5169 141.036 41.1701 141.795 40.583C141.76 40.4104 141.553 40.3413 141.553 40.3413C141.553 40.3413 140.553 40.583 138.931 40.583C137.31 40.583 136.309 40.3413 136.309 40.3413ZM138.966 38.0966C138.517 38.0966 138.414 37.924 138.138 37.924C137.862 37.924 137.31 38.1657 137.172 38.3729C137.172 38.4765 137.206 38.5801 137.31 38.6492C137.965 38.7528 138.241 39.0981 139 39.0981C139.759 39.0981 140.035 38.7528 140.691 38.6492C140.76 38.5801 140.794 38.4765 140.829 38.3729C140.725 38.1657 140.139 37.924 139.863 37.924C139.483 37.924 139.38 38.0966 138.966 38.0966ZM175.226 44.9688C175.191 45.8321 175.088 46.6954 174.984 47.5588C170.879 48.2494 169.395 44.5889 165.186 44.7616C165.427 45.6594 165.634 46.5573 165.807 47.4897C169.292 47.4897 170.672 50.7358 174.536 50.2524C174.329 51.2538 174.087 52.2208 173.811 53.1877C170.741 53.4985 169.671 50.4596 166.152 50.5286C166.186 51.0466 166.186 51.5301 166.186 52.0481C166.186 52.3244 166.186 52.6006 166.186 52.9114C169.188 52.8769 170.189 55.6741 173.052 55.536C172.707 56.5029 172.293 57.4698 171.845 58.4022C169.775 58.2986 169.085 55.6396 165.945 55.8468C165.841 56.5374 165.738 57.1936 165.6 57.8497C168.325 57.6425 168.912 60.1634 170.879 60.3706C170.396 61.2685 169.844 62.1664 169.292 63.0297C168.118 62.4081 167.118 60.5433 164.944 60.4052C165.186 59.7145 165.358 59.0238 165.531 58.2986C163.599 58.2986 161.356 57.5389 159.493 55.8468C160.08 52.3934 154.732 48.871 154.732 46.3501C154.732 43.622 156.112 42.1025 156.112 38.4074C156.112 35.6447 154.767 32.6749 152.766 30.6374C152.386 30.2575 151.972 29.9122 151.524 29.6359C153.352 31.9151 154.801 34.6433 154.801 37.7513C154.801 41.2392 153.18 43.0694 153.18 46.281C153.18 49.4926 157.872 52.2898 157.872 55.605C157.872 56.9173 157.458 58.195 156.078 60.6814C158.182 62.788 160.942 63.9276 162.702 63.9276C163.288 63.9276 163.599 63.7549 163.806 63.306C163.978 62.9261 164.151 62.5117 164.323 62.1318C166.221 62.2009 167.118 63.9276 168.153 64.6528C167.566 65.447 166.98 66.1722 166.324 66.8974C165.6 66.1032 164.668 64.7909 163.254 64.411C163.012 64.8945 162.736 65.378 162.46 65.8614C163.668 66.1722 164.496 67.4155 165.117 68.2097C164.427 68.9349 163.702 69.591 162.978 70.2472C162.529 69.522 161.805 68.6241 160.977 68.1061C160.666 68.5205 160.356 68.9004 160.045 69.2803C160.735 69.7637 161.356 70.5925 161.736 71.2832C160.873 71.9739 159.976 72.63 159.079 73.2516C158.631 69.5565 153.594 67.0356 154.939 62.7534C154.491 63.5132 153.973 64.4456 153.973 65.5852C153.973 68.6932 157.285 71.1451 157.527 74.2185C156.837 74.6329 156.147 75.0128 155.422 75.3927C155.319 72.0084 151.8 68.3133 151.8 65.5161C151.8 62.4081 155.871 59.3001 155.871 55.6396C155.871 51.979 151.179 49.4236 151.179 46.212C151.179 43.0004 153.18 41.1356 153.18 37.0261C153.18 34.0217 151.765 30.9482 149.523 29.0143C149.143 28.669 148.764 28.3927 148.281 28.151C150.385 30.6719 151.593 32.9166 151.593 36.3699C151.593 40.2377 149.316 42.4133 149.316 46.1774C149.316 49.9761 153.904 52.0826 153.904 55.605C153.904 59.1274 149.626 62.1318 149.626 65.7578C149.626 69.0731 153.387 72.3537 153.456 76.2905C152.628 76.6359 151.8 76.9812 150.937 77.292C151.42 73.3207 147.177 69.2457 147.177 65.9996C147.177 62.4772 151.627 59.4382 151.627 55.605C151.627 51.8064 147.108 50.0106 147.108 46.1084C147.108 42.2061 149.868 40.0305 149.868 35.7138C149.868 32.3295 148.212 29.3251 145.762 27.4258C145.728 27.3913 145.659 27.3567 145.624 27.3222C145.383 27.1495 145.21 27.3567 145.383 27.5639C147.108 29.705 148.005 31.8806 148.005 35.0922C148.005 39.0636 144.831 42.2752 144.831 46.1084C144.831 50.6322 149.109 51.91 149.109 55.6396C149.109 59.3346 144.52 62.3045 144.52 66.2413C144.52 69.9019 148.867 73.9423 148.108 78.1553C147.246 78.3971 146.349 78.5697 145.452 78.7424C146.28 73.4933 142.002 69.7292 142.002 66.2758C142.002 62.5462 146.728 59.231 146.728 55.605C146.728 52.1862 143.313 51.0466 142.864 47.5588C142.795 47.0753 142.416 46.73 141.898 46.799C141.208 46.9372 140.311 47.3861 138.931 47.3861C137.551 47.3861 136.654 46.9372 135.964 46.799C135.447 46.6954 135.067 47.0753 134.998 47.5588C134.55 51.0812 131.134 52.1862 131.134 55.605C131.134 59.231 135.861 62.5462 135.861 66.2758C135.861 69.6946 131.617 73.4933 132.41 78.7424C131.513 78.5697 130.651 78.3971 129.754 78.1553C128.995 73.9423 133.342 69.9019 133.342 66.2413C133.342 62.3045 128.753 59.3346 128.753 55.6396C128.753 51.9445 133.031 50.6322 133.031 46.1084C133.031 42.2752 129.857 39.0636 129.857 35.0922C129.857 31.8806 130.789 29.705 132.479 27.5639C132.652 27.3567 132.445 27.1495 132.238 27.3222C132.203 27.3567 132.134 27.3913 132.1 27.4258C129.685 29.2906 127.994 32.3295 127.994 35.7138C127.994 40.0305 130.754 42.2061 130.754 46.1084C130.754 50.0106 126.235 51.8064 126.235 55.605C126.235 59.4037 130.685 62.4426 130.685 65.9996C130.685 69.2457 126.442 73.3207 126.925 77.292C126.062 76.9812 125.234 76.6704 124.406 76.2905C124.475 72.3537 128.236 69.0731 128.236 65.7578C128.236 62.1318 123.958 59.1274 123.958 55.605C123.958 52.0826 128.546 49.9416 128.546 46.1774C128.546 42.3788 126.269 40.2377 126.269 36.3699C126.269 32.9166 127.477 30.6374 129.581 28.151C129.133 28.3927 128.719 28.669 128.339 29.0143C126.166 30.9482 124.751 34.0217 124.751 37.0261C124.751 41.1356 126.752 43.0004 126.752 46.212C126.752 49.4236 122.06 51.979 122.06 55.6396C122.06 59.3001 126.131 62.4081 126.131 65.5161C126.131 68.3133 122.647 72.0084 122.509 75.3927C121.784 75.0128 121.094 74.6329 120.404 74.2185C120.68 71.1451 123.958 68.6932 123.958 65.5852C123.958 64.4456 123.44 63.5132 122.992 62.7534C124.337 67.0356 119.3 69.5565 118.852 73.2516C117.92 72.63 117.058 71.9739 116.195 71.2832C116.575 70.5925 117.196 69.7637 117.886 69.2803C117.575 68.9004 117.265 68.486 116.954 68.1061C116.161 68.5896 115.436 69.522 114.953 70.2472C114.229 69.591 113.504 68.9004 112.814 68.2097C113.435 67.4155 114.263 66.2068 115.471 65.8614C115.195 65.378 114.919 64.929 114.677 64.411C113.297 64.7909 112.331 66.1032 111.607 66.8974C110.951 66.1722 110.365 65.4125 109.778 64.6528C110.848 63.9621 111.71 62.2354 113.608 62.1318C113.78 62.5462 113.918 62.9261 114.125 63.306C114.332 63.7549 114.643 63.9276 115.229 63.9276C116.989 63.9276 119.749 62.788 121.853 60.6814C120.473 58.195 120.059 56.9173 120.059 55.605C120.059 52.2898 124.751 49.5272 124.751 46.281C124.751 43.0694 123.13 41.2392 123.13 37.7513C123.13 34.6087 124.544 31.9151 126.407 29.6359C125.959 29.9122 125.545 30.2575 125.165 30.6374C123.164 32.6749 121.819 35.6447 121.819 38.4074C121.819 42.1025 123.199 43.622 123.199 46.3501C123.199 48.871 117.851 52.3934 118.472 55.8468C116.609 57.5389 114.367 58.2986 112.435 58.2986C112.607 59.0238 112.814 59.7145 113.021 60.4052C110.813 60.5088 109.813 62.4081 108.674 63.0297C108.088 62.1664 107.57 61.2685 107.087 60.3706C109.054 60.1634 109.64 57.6425 112.366 57.8497C112.228 57.1936 112.09 56.5029 112.021 55.8468C108.881 55.6396 108.157 58.2986 106.121 58.4022C105.673 57.4698 105.293 56.5029 104.914 55.536C107.777 55.6741 108.778 52.8769 111.779 52.9114C111.779 52.6352 111.779 52.3589 111.779 52.0481C111.779 51.5301 111.779 51.0121 111.814 50.5286C108.295 50.4596 107.191 53.4985 104.155 53.1877C103.879 52.2208 103.637 51.2538 103.43 50.2524C107.294 50.7358 108.674 47.4897 112.159 47.4897C112.331 46.5573 112.504 45.6594 112.78 44.7616C108.571 44.5889 107.087 48.2494 102.982 47.5588C102.878 46.6954 102.809 45.8321 102.74 44.9688C107.501 45.5213 109.295 41.5845 113.677 42.068C114.091 41.032 114.574 40.0305 115.091 39.0636C109.64 38.0966 107.777 42.655 102.706 41.9644C103.189 22.3494 119.231 6.63672 138.966 6.63672C158.665 6.63672 174.708 22.3494 175.26 41.9644C170.189 42.655 168.325 38.0966 162.874 39.0636C163.426 40.0305 163.875 41.032 164.289 42.068C168.636 41.5845 170.43 45.5213 175.226 44.9688ZM123.337 29.7395C120.68 28.6345 117.437 28.9107 114.677 30.6719C114.263 28.0819 112.849 25.8027 110.848 24.4214C110.572 24.2142 110.296 24.4214 110.296 24.7322C110.71 30.1885 107.536 34.885 103.637 39.0636C107.674 40.2722 111.089 35.0922 116.299 36.8879C118.196 34.0907 120.577 31.6734 123.337 29.7395ZM138.966 26.4589C135.585 26.4589 132.755 28.3582 132.031 30.8446C131.962 31.0173 132.065 31.1554 132.272 31.0518C132.893 30.7755 133.584 30.6374 134.308 30.6374C135.688 30.6374 136.896 31.1554 137.62 32.0187C137.931 33.0547 137.965 34.5742 137.62 35.4375C137.068 35.2994 136.861 34.885 136.309 34.885C135.757 34.885 135.343 35.2649 134.377 35.2649C133.445 35.2649 133.342 34.8159 132.721 34.8159C131.996 34.8159 131.858 35.5757 131.858 36.4045C131.858 40.1686 135.309 45.3486 139 45.3486C142.657 45.3486 146.107 40.1686 146.107 36.4045C146.107 35.5757 145.935 34.8505 145.176 34.7469C144.796 35.0231 144.451 35.2649 143.589 35.2649C142.657 35.2649 142.381 34.885 141.829 34.885C141.174 34.885 141.243 36.3009 140.449 36.3699C139.932 35.0922 139.897 33.4691 140.346 32.0187C141.07 31.1554 142.278 30.6374 143.658 30.6374C144.417 30.6374 145.107 30.7755 145.693 31.0518C145.9 31.1554 146.004 31.0173 145.935 30.8446C145.141 28.3582 142.312 26.4589 138.966 26.4589ZM144.313 31.8461C143.52 31.8461 142.554 32.0878 141.967 32.7439C141.898 32.9166 141.898 33.1929 142.002 33.3655C143.451 32.8475 144.762 32.8475 145.383 33.5382C145.728 33.2274 145.831 32.9511 145.831 32.6403C145.831 32.1914 145.314 31.8461 144.313 31.8461ZM132.548 33.5727C133.238 32.8475 134.757 32.8821 136.309 33.4691C136.378 32.7094 134.998 31.8461 133.618 31.8461C132.617 31.8461 132.134 32.1914 132.134 32.6749C132.1 32.9857 132.203 33.2619 132.548 33.5727ZM155.767 20.8299C153.111 21.0026 150.799 21.935 148.936 23.4545C149.73 21.2098 150.73 19.2414 152.007 17.3075C148.626 17.6529 145.797 18.8961 143.727 21.0371L142.105 16.7895L145.693 13.6125L140.898 13.2671L138.966 8.77779L137.034 13.2671L132.238 13.6125L135.826 16.7895L134.205 21.0371C132.134 18.9306 129.305 17.6874 125.924 17.3075C127.201 19.2069 128.201 21.1753 128.995 23.4545C127.132 21.935 124.82 21.0026 122.164 20.8299C123.751 22.9019 125.165 25.0775 126.235 27.4258C126.338 27.7021 126.614 27.7711 126.89 27.633C130.547 25.8373 134.653 24.8013 139 24.8013C143.347 24.8013 147.453 25.8373 151.11 27.633C151.386 27.7711 151.627 27.6675 151.765 27.4258C152.766 25.0775 154.18 22.9019 155.767 20.8299ZM161.563 36.8879C166.773 35.0922 170.223 40.2722 174.26 39.0636C170.361 34.9195 167.187 30.1885 167.601 24.7322C167.635 24.4214 167.325 24.2142 167.083 24.4214C165.082 25.8027 163.702 28.0819 163.254 30.6719C160.494 28.8762 157.251 28.6345 154.594 29.7395C157.32 31.6734 159.7 34.0907 161.563 36.8879Z" fill="#006241"/>
</svg>
