<svg width="21" height="20" viewBox="0 0 21 20" fill="none" xmlns="http://www.w3.org/2000/svg">
<g opacity="0.5">
<path d="M10.5925 1.80194C13.2631 1.80194 13.5766 1.81385 14.6322 1.86148C15.6083 1.90514 16.1361 2.06787 16.4893 2.20679C16.9575 2.38936 17.2909 2.60369 17.6401 2.95297C17.9893 3.30224 18.2075 3.63564 18.3861 4.10399C18.521 4.45723 18.6877 4.98512 18.7314 5.9615C18.779 7.01727 18.7909 7.33082 18.7909 10.002C18.7909 12.6732 18.779 12.9867 18.7314 14.0425C18.6877 15.0189 18.525 15.5467 18.3861 15.9C18.2036 16.3683 17.9893 16.7017 17.6401 17.051C17.2909 17.4003 16.9575 17.6186 16.4893 17.7972C16.1361 17.9321 15.6083 18.0988 14.6322 18.1425C13.5766 18.1901 13.2631 18.202 10.5925 18.202C7.92183 18.202 7.60834 18.1901 6.55279 18.1425C5.57659 18.0988 5.04882 17.9361 4.69564 17.7972C4.22739 17.6146 3.89405 17.4003 3.54485 17.051C3.19564 16.7017 2.97739 16.3683 2.79882 15.9C2.6639 15.5467 2.49723 15.0189 2.45358 14.0425C2.40596 12.9867 2.39405 12.6732 2.39405 10.002C2.39405 7.33082 2.40596 7.01727 2.45358 5.9615C2.49723 4.98512 2.65993 4.45723 2.79882 4.10399C2.98136 3.63564 3.19564 3.30224 3.54485 2.95297C3.89405 2.60369 4.22739 2.38539 4.69564 2.20679C5.04882 2.07184 5.57659 1.90514 6.55279 1.86148C7.60834 1.80988 7.9258 1.80194 10.5925 1.80194ZM10.5925 0C7.87818 0 7.53691 0.0119071 6.46945 0.0595356C5.40596 0.107164 4.67977 0.277833 4.04485 0.523914C3.38612 0.777932 2.83056 1.12324 2.27501 1.6789C1.71945 2.23457 1.37818 2.79421 1.12025 3.4491C0.874213 4.08414 0.703578 4.81048 0.655959 5.87815C0.60834 6.94185 0.596436 7.28319 0.596436 9.99802C0.596436 12.7128 0.60834 13.0542 0.655959 14.1219C0.703578 15.1856 0.874213 15.9119 1.12025 16.5509C1.37421 17.2098 1.71945 17.7654 2.27501 18.3211C2.83056 18.8768 3.39009 19.2181 4.04485 19.4761C4.67977 19.7222 5.40596 19.8928 6.47342 19.9405C7.54088 19.9881 7.87818 20 10.5964 20C13.3147 20 13.652 19.9881 14.7195 19.9405C15.7829 19.8928 16.5091 19.7222 17.148 19.4761C17.8068 19.2221 18.3623 18.8768 18.9179 18.3211C19.4734 17.7654 19.8147 17.2058 20.0726 16.5509C20.3187 15.9159 20.4893 15.1895 20.5369 14.1219C20.5845 13.0542 20.5964 12.7168 20.5964 9.99802C20.5964 7.27922 20.5845 6.94185 20.5369 5.87418C20.4893 4.81048 20.3187 4.08414 20.0726 3.44513C19.8187 2.78627 19.4734 2.2306 18.9179 1.67494C18.3623 1.11927 17.8028 0.777932 17.148 0.519944C16.5131 0.273864 15.7869 0.103195 14.7195 0.0555666C13.648 0.0119071 13.3068 0 10.5925 0Z" fill="white"/>
<path d="M10.5946 4.86328C7.7613 4.86328 5.45972 7.16136 5.45972 9.99922C5.45972 12.8371 7.75734 15.1352 10.5946 15.1352C13.4319 15.1352 15.7296 12.8371 15.7296 9.99922C15.7296 7.16136 13.4319 4.86328 10.5946 4.86328ZM10.5946 13.3292C8.75337 13.3292 7.2613 11.8369 7.2613 9.99525C7.2613 8.15362 8.75337 6.66126 10.5946 6.66126C12.4359 6.66126 13.928 8.15362 13.928 9.99525C13.928 11.8369 12.4359 13.3292 10.5946 13.3292Z" fill="white"/>
<path d="M15.9316 5.85433C16.5934 5.85433 17.13 5.31768 17.13 4.65568C17.13 3.99369 16.5934 3.45703 15.9316 3.45703C15.2697 3.45703 14.7332 3.99369 14.7332 4.65568C14.7332 5.31768 15.2697 5.85433 15.9316 5.85433Z" fill="white"/>
</g>
</svg>
