<?xml version="1.0" standalone="no"?>
<!DOCTYPE svg PUBLIC "-//W3C//DTD SVG 20010904//EN"
 "http://www.w3.org/TR/2001/REC-SVG-20010904/DTD/svg10.dtd">
<svg version="1.0" xmlns="http://www.w3.org/2000/svg"
 width="50.000000pt" height="50.000000pt" viewBox="0 0 50.000000 50.000000"
 preserveAspectRatio="xMidYMid meet">

<g transform="translate(0.000000,50.000000) scale(0.100000,-0.100000)"
fill="#ffffff" stroke="none">
<path d="M205 360 l-110 -110 113 -112 112 -113 37 38 38 37 -75 75 -74 75 74
75 74 75 -34 35 c-19 19 -36 35 -40 35 -3 0 -55 -50 -115 -110z m140 60 c18
-20 18 -22 -55 -95 l-74 -75 74 -75 74 -75 -22 -22 -22 -23 -97 98 -98 97 95
95 c52 52 97 95 101 95 3 0 14 -9 24 -20z"/>
</g>
</svg>
