<?xml version="1.0" standalone="no"?>
<!DOCTYPE svg PUBLIC "-//W3C//DTD SVG 20010904//EN"
 "http://www.w3.org/TR/2001/REC-SVG-20010904/DTD/svg10.dtd">
<svg version="1.0" xmlns="http://www.w3.org/2000/svg"
 width="62.000000pt" height="62.000000pt" viewBox="0 0 62.000000 62.000000"
 preserveAspectRatio="xMidYMid meet">

<g transform="translate(0.000000,62.000000) scale(0.100000,-0.100000)"
fill="#006241" stroke="none">
<path d="M271 499 c-42 -17 -51 -28 -39 -48 10 -17 14 -16 56 6 30 16 41 19
33 9 -8 -9 -10 -16 -5 -16 5 0 1 -5 -9 -11 -14 -8 -16 -14 -6 -25 6 -7 16 -11
22 -7 6 4 7 1 3 -6 -6 -9 -13 -8 -27 5 -20 18 -27 6 -7 -14 8 -8 8 -12 1 -12
-20 0 -24 33 -6 53 l18 21 -26 -20 c-15 -10 -25 -22 -22 -26 2 -5 0 -8 -5 -8
-6 0 -13 -7 -16 -15 -5 -13 1 -15 35 -12 33 3 51 14 91 54 l50 50 -32 17 c-37
18 -73 20 -109 5z m39 -9 c-8 -5 -24 -9 -35 -9 -16 1 -16 2 5 9 35 11 48 11
30 0z m45 -8 c-3 -3 -11 0 -18 7 -9 10 -8 11 6 5 10 -3 15 -9 12 -12z m-92
-19 c-7 -2 -19 -2 -25 0 -7 3 -2 5 12 5 14 0 19 -2 13 -5z m81 -5 c-5 -8 -2
-9 10 -5 10 4 15 3 11 -3 -7 -12 -35 -13 -35 -2 0 9 10 22 17 22 2 0 1 -5 -3
-12z"/>
<path d="M205 423 c-3 -16 -10 -43 -16 -61 -6 -19 -8 -36 -6 -39 3 -3 11 14
18 36 7 23 18 46 25 52 13 11 8 39 -7 39 -5 0 -11 -12 -14 -27z"/>
<path d="M395 378 c28 -15 65 -55 58 -62 -4 -3 -1 -7 5 -7 7 -1 17 -2 24 -3 6
0 13 -8 15 -16 3 -9 1 -11 -4 -5 -18 23 -28 12 -25 -28 2 -32 1 -38 -7 -27 -9
13 -11 13 -11 -2 0 -32 -15 -19 -17 15 -2 23 0 28 7 17 8 -13 10 -13 10 1 0 9
-8 25 -17 36 -10 10 -17 17 -15 14 1 -2 -5 -12 -14 -22 -17 -19 -16 -51 5
-126 13 -49 21 -52 54 -21 35 33 48 64 41 95 -4 22 -3 25 5 13 9 -12 10 -8 5
15 -7 32 -98 124 -124 124 -10 0 -9 -3 5 -11z m22 -135 c1 -32 -1 -34 -8 -15
-7 18 -3 52 5 52 1 0 2 -17 3 -37z m70 5 c-3 -8 -6 -5 -6 6 -1 11 2 17 5 13 3
-3 4 -12 1 -19z m6 -48 c-5 -19 -23 -29 -23 -12 0 7 20 32 26 32 1 0 0 -9 -3
-20z m-56 -62 c-3 -8 -6 -5 -6 6 -1 11 2 17 5 13 3 -3 4 -12 1 -19z"/>
<path d="M105 270 c3 -5 11 -10 16 -10 6 0 7 5 4 10 -3 6 -11 10 -16 10 -6 0
-7 -4 -4 -10z"/>
<path d="M150 250 c12 -9 7 -11 -20 -7 -19 3 -30 3 -23 1 7 -3 10 -11 7 -19
-3 -7 0 -24 7 -37 31 -59 104 -94 137 -65 9 8 28 17 42 20 14 2 5 4 -20 4 -25
0 -56 5 -69 12 -12 7 -30 10 -38 7 -13 -6 -14 -4 -3 9 12 14 10 15 -12 10 -26
-7 -43 11 -30 32 9 13 82 27 82 16 0 -4 -14 -9 -32 -10 -35 -3 -56 -17 -39
-27 6 -4 11 -4 11 1 0 4 19 8 43 9 23 0 34 -1 25 -3 -21 -5 -24 -23 -5 -24 6
0 24 -3 40 -5 20 -4 27 -1 27 11 0 10 -4 13 -12 8 -28 -17 -42 -11 -18 8 14
12 19 18 13 14 -7 -3 -13 -1 -13 5 0 6 -4 8 -10 5 -5 -3 -10 -2 -10 3 0 12
-24 22 -65 28 -24 4 -27 3 -15 -6z m54 -106 c3 -9 13 -14 21 -10 8 3 17 1 20
-4 10 -16 -32 -11 -49 6 -18 18 -20 24 -7 24 5 0 12 -7 15 -16z"/>
<path d="M340 160 c-9 -6 -10 -10 -3 -10 6 0 15 5 18 10 8 12 4 12 -15 0z"/>
</g>
</svg>
