<svg width="25" height="20" viewBox="0 0 25 20" fill="none" xmlns="http://www.w3.org/2000/svg">
<g opacity="0.5">
<path d="M7.72638 20C17.0079 20 22.0866 12.3031 22.0866 5.63976C22.0866 5.42323 22.0866 5.20669 22.0768 4.99016C23.061 4.2815 23.9173 3.38583 24.5965 2.37205C23.6909 2.77559 22.7165 3.04134 21.6929 3.16929C22.7362 2.54921 23.5335 1.55512 23.9173 0.374015C22.9429 0.954724 21.8602 1.36811 20.7087 1.59449C19.7835 0.610236 18.4744 0 17.0276 0C14.2421 0 11.9783 2.26378 11.9783 5.04921C11.9783 5.44291 12.0276 5.82677 12.1063 6.20079C7.91338 5.99409 4.19291 3.97638 1.70276 0.925197C1.26969 1.67323 1.02362 2.53937 1.02362 3.46457C1.02362 5.21654 1.91929 6.76181 3.26772 7.66732C2.44094 7.6378 1.66339 7.41142 0.984252 7.0374C0.984252 7.05709 0.984252 7.07677 0.984252 7.1063C0.984252 9.54724 2.72638 11.5945 5.02953 12.0571C4.6063 12.1752 4.16338 12.2343 3.70079 12.2343C3.37598 12.2343 3.06102 12.2047 2.7559 12.1457C3.39567 14.1535 5.26575 15.6102 7.47047 15.6496C5.73819 17.0079 3.56299 17.815 1.20079 17.815C0.797244 17.815 0.393701 17.7953 0 17.7461C2.22441 19.1634 4.88189 20 7.72638 20Z" fill="white"/>
</g>
</svg>
