<svg width="28" height="20" viewBox="0 0 28 20" fill="none" xmlns="http://www.w3.org/2000/svg">
<g opacity="0.5">
<path d="M27.0288 3.12903C26.722 1.90323 25.8015 0.935484 24.6356 0.596774C22.5339 0 14.0964 0 14.0964 0C14.0964 0 5.65894 0 3.54189 0.596774C2.37598 0.919355 1.47087 1.8871 1.14871 3.12903C0.596436 5.35484 0.596436 10 0.596436 10C0.596436 10 0.596436 14.6452 1.16405 16.871C1.47087 18.0968 2.39132 19.0645 3.55723 19.4032C5.65894 20 14.0964 20 14.0964 20C14.0964 20 22.5339 20 24.651 19.4032C25.8169 19.0806 26.722 18.1129 27.0442 16.871C27.5964 14.6452 27.5964 10 27.5964 10C27.5964 10 27.5964 5.35484 27.0288 3.12903ZM11.3351 14.2258V5.77419L18.3919 10L11.3351 14.2258Z" fill="white"/>
</g>
</svg>
